<mxfile host="app.diagrams.net" modified="2023-03-31T23:43:42.166Z" agent="Mozilla/5.0 (Windows NT 10.0; Win64; x64) AppleWebKit/537.36 (KHTML, like Gecko) Chrome/111.0.0.0 Safari/537.36" etag="g0CYkMtBxQMDVFDO8_wb" version="21.1.2" type="device">
  <diagram name="Page-1" id="epNNROfHkKnDNLngfpTh">
    <mxGraphModel dx="3084" dy="3411" grid="1" gridSize="10" guides="1" tooltips="1" connect="1" arrows="1" fold="1" page="1" pageScale="1" pageWidth="850" pageHeight="1100" math="0" shadow="0">
      <root>
        <mxCell id="0" />
        <mxCell id="1" parent="0" />
        <mxCell id="-N1TcMKGQXpCPjwiUiGK-138" style="edgeStyle=orthogonalEdgeStyle;rounded=0;orthogonalLoop=1;jettySize=auto;html=1;endArrow=none;endFill=0;" edge="1" parent="1" source="-N1TcMKGQXpCPjwiUiGK-165" target="-N1TcMKGQXpCPjwiUiGK-45">
          <mxGeometry relative="1" as="geometry">
            <mxPoint x="780" y="-1470.9999999999998" as="sourcePoint" />
            <Array as="points">
              <mxPoint x="880" y="-1530" />
            </Array>
          </mxGeometry>
        </mxCell>
        <mxCell id="-N1TcMKGQXpCPjwiUiGK-20" value=" DeliveryMan" style="swimlane;fontStyle=1;align=center;verticalAlign=top;childLayout=stackLayout;horizontal=1;startSize=26;horizontalStack=0;resizeParent=1;resizeParentMax=0;resizeLast=0;collapsible=1;marginBottom=0;" vertex="1" parent="1">
          <mxGeometry x="910" y="-1748" width="159" height="100" as="geometry" />
        </mxCell>
        <mxCell id="-N1TcMKGQXpCPjwiUiGK-21" value="maxDeliveriesInDay&#xa;*deliveryManId&#xa;*fisherID&#xa;*vehicleID" style="text;strokeColor=none;fillColor=none;align=left;verticalAlign=top;spacingLeft=4;spacingRight=4;overflow=hidden;rotatable=0;points=[[0,0.5],[1,0.5]];portConstraint=eastwest;" vertex="1" parent="-N1TcMKGQXpCPjwiUiGK-20">
          <mxGeometry y="26" width="159" height="74" as="geometry" />
        </mxCell>
        <mxCell id="-N1TcMKGQXpCPjwiUiGK-40" value="Vehicle" style="swimlane;fontStyle=1;align=center;verticalAlign=top;childLayout=stackLayout;horizontal=1;startSize=26;horizontalStack=0;resizeParent=1;resizeParentMax=0;resizeLast=0;collapsible=1;marginBottom=0;" vertex="1" parent="1">
          <mxGeometry x="1180" y="-1770" width="160" height="180" as="geometry">
            <mxRectangle x="500" y="-190" width="70" height="30" as="alternateBounds" />
          </mxGeometry>
        </mxCell>
        <mxCell id="-N1TcMKGQXpCPjwiUiGK-41" value="*id&#xa;registrationMatricule&#xa;make&#xa;model&#xa;capacity &#xa;deliveryMan&#xa;photo&#xa;type&#xa;Insurance&#xa;*DeliveryManID" style="text;strokeColor=none;fillColor=none;align=left;verticalAlign=top;spacingLeft=4;spacingRight=4;overflow=hidden;rotatable=0;points=[[0,0.5],[1,0.5]];portConstraint=eastwest;" vertex="1" parent="-N1TcMKGQXpCPjwiUiGK-40">
          <mxGeometry y="26" width="160" height="154" as="geometry" />
        </mxCell>
        <mxCell id="-N1TcMKGQXpCPjwiUiGK-44" value="Product" style="swimlane;fontStyle=1;align=center;verticalAlign=top;childLayout=stackLayout;horizontal=1;startSize=26;horizontalStack=0;resizeParent=1;resizeParentMax=0;resizeLast=0;collapsible=1;marginBottom=0;" vertex="1" parent="1">
          <mxGeometry x="830" y="-2010" width="160" height="170" as="geometry">
            <mxRectangle x="500" y="-190" width="70" height="30" as="alternateBounds" />
          </mxGeometry>
        </mxCell>
        <mxCell id="-N1TcMKGQXpCPjwiUiGK-45" value="*id&#xa;title&#xa;fishType&#xa;phtoto&#xa;quantity&#xa;price&#xa;dateOfFishing&#xa;description&#xa;*fisherID" style="text;strokeColor=none;fillColor=none;align=left;verticalAlign=top;spacingLeft=4;spacingRight=4;overflow=hidden;rotatable=0;points=[[0,0.5],[1,0.5]];portConstraint=eastwest;" vertex="1" parent="-N1TcMKGQXpCPjwiUiGK-44">
          <mxGeometry y="26" width="160" height="144" as="geometry" />
        </mxCell>
        <mxCell id="-N1TcMKGQXpCPjwiUiGK-48" value="JobOffers" style="swimlane;fontStyle=1;align=center;verticalAlign=top;childLayout=stackLayout;horizontal=1;startSize=26;horizontalStack=0;resizeParent=1;resizeParentMax=0;resizeLast=0;collapsible=1;marginBottom=0;fillColor=#e1d5e7;strokeColor=#9673a6;" vertex="1" parent="1">
          <mxGeometry x="620" y="-1290" width="160" height="170" as="geometry">
            <mxRectangle x="500" y="-190" width="70" height="30" as="alternateBounds" />
          </mxGeometry>
        </mxCell>
        <mxCell id="-N1TcMKGQXpCPjwiUiGK-49" value="*id&#xa;numberOfPlaces&#xa;description&#xa;qualifications&#xa;schedule&#xa;salary&#xa;deliveriesPerDay&#xa;vehicleRequired&#xa;*fisherID" style="text;strokeColor=none;fillColor=none;align=left;verticalAlign=top;spacingLeft=4;spacingRight=4;overflow=hidden;rotatable=0;points=[[0,0.5],[1,0.5]];portConstraint=eastwest;" vertex="1" parent="-N1TcMKGQXpCPjwiUiGK-48">
          <mxGeometry y="26" width="160" height="144" as="geometry" />
        </mxCell>
        <mxCell id="-N1TcMKGQXpCPjwiUiGK-74" value="commande" style="swimlane;fontStyle=1;align=center;verticalAlign=top;childLayout=stackLayout;horizontal=1;startSize=26;horizontalStack=0;resizeParent=1;resizeParentMax=0;resizeLast=0;collapsible=1;marginBottom=0;" vertex="1" parent="1">
          <mxGeometry x="240" y="-1960" width="160" height="140" as="geometry" />
        </mxCell>
        <mxCell id="-N1TcMKGQXpCPjwiUiGK-75" value="*id&#xa;address&#xa;phone&#xa;status&#xa;payementMethodes&#xa;*DeliveryManID&#xa;*clientID" style="text;strokeColor=none;fillColor=none;align=left;verticalAlign=top;spacingLeft=4;spacingRight=4;overflow=hidden;rotatable=0;points=[[0,0.5],[1,0.5]];portConstraint=eastwest;fontStyle=0" vertex="1" parent="-N1TcMKGQXpCPjwiUiGK-74">
          <mxGeometry y="26" width="160" height="114" as="geometry" />
        </mxCell>
        <mxCell id="-N1TcMKGQXpCPjwiUiGK-135" style="edgeStyle=orthogonalEdgeStyle;rounded=0;orthogonalLoop=1;jettySize=auto;html=1;endArrow=none;endFill=0;exitX=0.5;exitY=0;exitDx=0;exitDy=0;" edge="1" parent="1" source="-N1TcMKGQXpCPjwiUiGK-107" target="-N1TcMKGQXpCPjwiUiGK-45">
          <mxGeometry relative="1" as="geometry">
            <mxPoint x="620" y="-1651.9999999999998" as="targetPoint" />
            <Array as="points">
              <mxPoint x="400" y="-1690" />
              <mxPoint x="780" y="-1690" />
              <mxPoint x="780" y="-1870" />
            </Array>
          </mxGeometry>
        </mxCell>
        <mxCell id="-N1TcMKGQXpCPjwiUiGK-107" value="Rating" style="swimlane;fontStyle=1;align=center;verticalAlign=top;childLayout=stackLayout;horizontal=1;startSize=26;horizontalStack=0;resizeParent=1;resizeParentMax=0;resizeLast=0;collapsible=1;marginBottom=0;" vertex="1" parent="1">
          <mxGeometry x="320" y="-1660" width="160" height="110" as="geometry">
            <mxRectangle x="500" y="-190" width="70" height="30" as="alternateBounds" />
          </mxGeometry>
        </mxCell>
        <mxCell id="-N1TcMKGQXpCPjwiUiGK-108" value="*id &#xa;*clientID&#xa;ratings&#xa;review&#xa;*productID" style="text;strokeColor=none;fillColor=none;align=left;verticalAlign=top;spacingLeft=4;spacingRight=4;overflow=hidden;rotatable=0;points=[[0,0.5],[1,0.5]];portConstraint=eastwest;" vertex="1" parent="-N1TcMKGQXpCPjwiUiGK-107">
          <mxGeometry y="26" width="160" height="84" as="geometry" />
        </mxCell>
        <mxCell id="-N1TcMKGQXpCPjwiUiGK-139" style="edgeStyle=orthogonalEdgeStyle;rounded=0;orthogonalLoop=1;jettySize=auto;html=1;entryX=0.25;entryY=0;entryDx=0;entryDy=0;endArrow=none;endFill=0;" edge="1" parent="1" source="-N1TcMKGQXpCPjwiUiGK-75" target="-N1TcMKGQXpCPjwiUiGK-20">
          <mxGeometry relative="1" as="geometry">
            <Array as="points">
              <mxPoint x="320" y="-1780" />
              <mxPoint x="950" y="-1780" />
            </Array>
          </mxGeometry>
        </mxCell>
        <mxCell id="-N1TcMKGQXpCPjwiUiGK-121" value="ProductCommand" style="swimlane;fontStyle=1;align=center;verticalAlign=top;childLayout=stackLayout;horizontal=1;startSize=26;horizontalStack=0;resizeParent=1;resizeParentMax=0;resizeLast=0;collapsible=1;marginBottom=0;" vertex="1" parent="1">
          <mxGeometry x="530" y="-1930" width="160" height="80" as="geometry" />
        </mxCell>
        <mxCell id="-N1TcMKGQXpCPjwiUiGK-122" value="*commandID&#xa;*productsID&#xa;" style="text;strokeColor=none;fillColor=none;align=left;verticalAlign=top;spacingLeft=4;spacingRight=4;overflow=hidden;rotatable=0;points=[[0,0.5],[1,0.5]];portConstraint=eastwest;fontStyle=0" vertex="1" parent="-N1TcMKGQXpCPjwiUiGK-121">
          <mxGeometry y="26" width="160" height="54" as="geometry" />
        </mxCell>
        <mxCell id="-N1TcMKGQXpCPjwiUiGK-123" style="edgeStyle=orthogonalEdgeStyle;rounded=0;orthogonalLoop=1;jettySize=auto;html=1;exitX=1;exitY=0.5;exitDx=0;exitDy=0;endArrow=none;endFill=0;" edge="1" parent="1" source="-N1TcMKGQXpCPjwiUiGK-75" target="-N1TcMKGQXpCPjwiUiGK-122">
          <mxGeometry relative="1" as="geometry" />
        </mxCell>
        <mxCell id="-N1TcMKGQXpCPjwiUiGK-124" style="edgeStyle=orthogonalEdgeStyle;rounded=0;orthogonalLoop=1;jettySize=auto;html=1;endArrow=none;endFill=0;entryX=0.5;entryY=0;entryDx=0;entryDy=0;" edge="1" parent="1" source="-N1TcMKGQXpCPjwiUiGK-45" target="-N1TcMKGQXpCPjwiUiGK-121">
          <mxGeometry relative="1" as="geometry">
            <mxPoint x="830" y="-1901" as="sourcePoint" />
            <mxPoint x="690" y="-1836" as="targetPoint" />
            <Array as="points">
              <mxPoint x="610" y="-1960" />
            </Array>
          </mxGeometry>
        </mxCell>
        <mxCell id="-N1TcMKGQXpCPjwiUiGK-127" style="edgeStyle=orthogonalEdgeStyle;rounded=0;orthogonalLoop=1;jettySize=auto;html=1;exitX=1;exitY=0.5;exitDx=0;exitDy=0;endArrow=none;endFill=0;" edge="1" parent="1" source="-N1TcMKGQXpCPjwiUiGK-21" target="-N1TcMKGQXpCPjwiUiGK-41">
          <mxGeometry relative="1" as="geometry">
            <mxPoint x="1150" y="-1680.0000000000002" as="targetPoint" />
            <Array as="points">
              <mxPoint x="1150" y="-1685" />
              <mxPoint x="1150" y="-1685" />
            </Array>
          </mxGeometry>
        </mxCell>
        <mxCell id="-N1TcMKGQXpCPjwiUiGK-141" style="edgeStyle=orthogonalEdgeStyle;rounded=0;orthogonalLoop=1;jettySize=auto;html=1;endArrow=none;endFill=0;exitX=0.5;exitY=0;exitDx=0;exitDy=0;entryX=0;entryY=0.5;entryDx=0;entryDy=0;" edge="1" parent="1" source="-N1TcMKGQXpCPjwiUiGK-164" target="-N1TcMKGQXpCPjwiUiGK-75">
          <mxGeometry relative="1" as="geometry">
            <mxPoint x="550" y="-1810" as="targetPoint" />
            <mxPoint x="270" y="-1748" as="sourcePoint" />
            <Array as="points">
              <mxPoint x="685" y="-1740" />
              <mxPoint x="190" y="-1740" />
              <mxPoint x="190" y="-1877" />
            </Array>
          </mxGeometry>
        </mxCell>
        <mxCell id="-N1TcMKGQXpCPjwiUiGK-154" style="edgeStyle=orthogonalEdgeStyle;rounded=0;orthogonalLoop=1;jettySize=auto;html=1;endArrow=none;endFill=0;" edge="1" parent="1" source="-N1TcMKGQXpCPjwiUiGK-165" target="-N1TcMKGQXpCPjwiUiGK-48">
          <mxGeometry relative="1" as="geometry">
            <mxPoint x="700" y="-1401.0000000000002" as="sourcePoint" />
            <Array as="points">
              <mxPoint x="700" y="-1380" />
              <mxPoint x="700" y="-1380" />
            </Array>
          </mxGeometry>
        </mxCell>
        <mxCell id="-N1TcMKGQXpCPjwiUiGK-155" style="edgeStyle=orthogonalEdgeStyle;rounded=0;orthogonalLoop=1;jettySize=auto;html=1;endArrow=none;endFill=0;entryX=0.75;entryY=1;entryDx=0;entryDy=0;" edge="1" parent="1" source="-N1TcMKGQXpCPjwiUiGK-97" target="-N1TcMKGQXpCPjwiUiGK-165">
          <mxGeometry relative="1" as="geometry">
            <Array as="points">
              <mxPoint x="990" y="-1330" />
              <mxPoint x="728" y="-1330" />
            </Array>
          </mxGeometry>
        </mxCell>
        <mxCell id="-N1TcMKGQXpCPjwiUiGK-97" value="Candidature" style="swimlane;fontStyle=1;align=center;verticalAlign=top;childLayout=stackLayout;horizontal=1;startSize=30;horizontalStack=0;resizeParent=1;resizeParentMax=0;resizeLast=0;collapsible=1;marginBottom=0;fillColor=#e1d5e7;strokeColor=#9673a6;" vertex="1" parent="1">
          <mxGeometry x="910" y="-1295" width="159" height="130" as="geometry">
            <mxRectangle x="500" y="-190" width="70" height="30" as="alternateBounds" />
          </mxGeometry>
        </mxCell>
        <mxCell id="-N1TcMKGQXpCPjwiUiGK-98" value="*id&#xa;*jobofferID&#xa;*candidateID&#xa;candidateFirstName&#xa;candidateLastName&#xa;status" style="text;strokeColor=none;fillColor=none;align=left;verticalAlign=top;spacingLeft=4;spacingRight=4;overflow=hidden;rotatable=0;points=[[0,0.5],[1,0.5]];portConstraint=eastwest;" vertex="1" parent="-N1TcMKGQXpCPjwiUiGK-97">
          <mxGeometry y="30" width="159" height="100" as="geometry" />
        </mxCell>
        <mxCell id="-N1TcMKGQXpCPjwiUiGK-156" style="edgeStyle=orthogonalEdgeStyle;rounded=0;orthogonalLoop=1;jettySize=auto;html=1;endArrow=none;endFill=0;" edge="1" parent="1" source="-N1TcMKGQXpCPjwiUiGK-98" target="-N1TcMKGQXpCPjwiUiGK-49">
          <mxGeometry relative="1" as="geometry">
            <Array as="points">
              <mxPoint x="959" y="-1200" />
            </Array>
          </mxGeometry>
        </mxCell>
        <mxCell id="-N1TcMKGQXpCPjwiUiGK-157" style="edgeStyle=orthogonalEdgeStyle;rounded=0;orthogonalLoop=1;jettySize=auto;html=1;endArrow=none;endFill=0;entryX=1;entryY=0.5;entryDx=0;entryDy=0;exitX=0.25;exitY=0;exitDx=0;exitDy=0;" edge="1" parent="1" source="-N1TcMKGQXpCPjwiUiGK-164" target="-N1TcMKGQXpCPjwiUiGK-108">
          <mxGeometry relative="1" as="geometry">
            <Array as="points">
              <mxPoint x="643" y="-1592" />
            </Array>
          </mxGeometry>
        </mxCell>
        <mxCell id="-N1TcMKGQXpCPjwiUiGK-162" value="fishingLiscence" style="swimlane;fontStyle=1;align=center;verticalAlign=top;childLayout=stackLayout;horizontal=1;startSize=26;horizontalStack=0;resizeParent=1;resizeParentMax=0;resizeLast=0;collapsible=1;marginBottom=0;" vertex="1" parent="1">
          <mxGeometry x="310" y="-1520" width="160" height="170" as="geometry">
            <mxRectangle x="500" y="-190" width="70" height="30" as="alternateBounds" />
          </mxGeometry>
        </mxCell>
        <mxCell id="-N1TcMKGQXpCPjwiUiGK-163" value="*id&#xa;license_number&#xa;expiration_date&#xa;issue_date&#xa;type &#xa;issuing_authority&#xa;fisherman_id&#xa;docuement&#xa;notes" style="text;strokeColor=none;fillColor=none;align=left;verticalAlign=top;spacingLeft=4;spacingRight=4;overflow=hidden;rotatable=0;points=[[0,0.5],[1,0.5]];portConstraint=eastwest;" vertex="1" parent="-N1TcMKGQXpCPjwiUiGK-162">
          <mxGeometry y="26" width="160" height="144" as="geometry" />
        </mxCell>
        <mxCell id="-N1TcMKGQXpCPjwiUiGK-164" value="User" style="swimlane;fontStyle=1;align=center;verticalAlign=top;childLayout=stackLayout;horizontal=1;startSize=26;horizontalStack=0;resizeParent=1;resizeParentMax=0;resizeLast=0;collapsible=1;marginBottom=0;" vertex="1" parent="1">
          <mxGeometry x="600" y="-1572" width="170" height="170" as="geometry" />
        </mxCell>
        <mxCell id="-N1TcMKGQXpCPjwiUiGK-165" value="&lt;span style=&quot;color: rgb(0, 0, 0); font-family: Helvetica; font-size: 12px; font-style: normal; font-variant-ligatures: normal; font-variant-caps: normal; font-weight: 400; letter-spacing: normal; orphans: 2; text-align: left; text-indent: 0px; text-transform: none; widows: 2; word-spacing: 0px; -webkit-text-stroke-width: 0px; background-color: rgb(251, 251, 251); text-decoration-thickness: initial; text-decoration-style: initial; text-decoration-color: initial; float: none; display: inline !important;&quot;&gt;&amp;nbsp; *id&lt;/span&gt;&lt;br style=&quot;border-color: var(--border-color); padding: 0px; margin: 0px; color: rgb(0, 0, 0); font-family: Helvetica; font-size: 12px; font-style: normal; font-variant-ligatures: normal; font-variant-caps: normal; font-weight: 400; letter-spacing: normal; orphans: 2; text-align: left; text-indent: 0px; text-transform: none; widows: 2; word-spacing: 0px; -webkit-text-stroke-width: 0px; background-color: rgb(251, 251, 251); text-decoration-thickness: initial; text-decoration-style: initial; text-decoration-color: initial;&quot;&gt;&lt;span style=&quot;color: rgb(0, 0, 0); font-family: Helvetica; font-size: 12px; font-style: normal; font-variant-ligatures: normal; font-variant-caps: normal; font-weight: 400; letter-spacing: normal; orphans: 2; text-align: left; text-indent: 0px; text-transform: none; widows: 2; word-spacing: 0px; -webkit-text-stroke-width: 0px; background-color: rgb(251, 251, 251); text-decoration-thickness: initial; text-decoration-style: initial; text-decoration-color: initial; float: none; display: inline !important;&quot;&gt;&amp;nbsp;&amp;nbsp;firstName&amp;nbsp;&lt;/span&gt;&lt;br style=&quot;border-color: var(--border-color); padding: 0px; margin: 0px; color: rgb(0, 0, 0); font-family: Helvetica; font-size: 12px; font-style: normal; font-variant-ligatures: normal; font-variant-caps: normal; font-weight: 400; letter-spacing: normal; orphans: 2; text-align: left; text-indent: 0px; text-transform: none; widows: 2; word-spacing: 0px; -webkit-text-stroke-width: 0px; background-color: rgb(251, 251, 251); text-decoration-thickness: initial; text-decoration-style: initial; text-decoration-color: initial;&quot;&gt;&lt;span style=&quot;color: rgb(0, 0, 0); font-family: Helvetica; font-size: 12px; font-style: normal; font-variant-ligatures: normal; font-variant-caps: normal; font-weight: 400; letter-spacing: normal; orphans: 2; text-align: left; text-indent: 0px; text-transform: none; widows: 2; word-spacing: 0px; -webkit-text-stroke-width: 0px; background-color: rgb(251, 251, 251); text-decoration-thickness: initial; text-decoration-style: initial; text-decoration-color: initial; float: none; display: inline !important;&quot;&gt;&amp;nbsp;&amp;nbsp;lastName&amp;nbsp;&lt;/span&gt;&lt;br style=&quot;border-color: var(--border-color); padding: 0px; margin: 0px; color: rgb(0, 0, 0); font-family: Helvetica; font-size: 12px; font-style: normal; font-variant-ligatures: normal; font-variant-caps: normal; font-weight: 400; letter-spacing: normal; orphans: 2; text-align: left; text-indent: 0px; text-transform: none; widows: 2; word-spacing: 0px; -webkit-text-stroke-width: 0px; background-color: rgb(251, 251, 251); text-decoration-thickness: initial; text-decoration-style: initial; text-decoration-color: initial;&quot;&gt;&lt;span style=&quot;color: rgb(0, 0, 0); font-family: Helvetica; font-size: 12px; font-style: normal; font-variant-ligatures: normal; font-variant-caps: normal; font-weight: 400; letter-spacing: normal; orphans: 2; text-align: left; text-indent: 0px; text-transform: none; widows: 2; word-spacing: 0px; -webkit-text-stroke-width: 0px; background-color: rgb(251, 251, 251); text-decoration-thickness: initial; text-decoration-style: initial; text-decoration-color: initial; float: none; display: inline !important;&quot;&gt;&amp;nbsp;&amp;nbsp;email&amp;nbsp;&lt;/span&gt;&lt;br style=&quot;border-color: var(--border-color); padding: 0px; margin: 0px; color: rgb(0, 0, 0); font-family: Helvetica; font-size: 12px; font-style: normal; font-variant-ligatures: normal; font-variant-caps: normal; font-weight: 400; letter-spacing: normal; orphans: 2; text-align: left; text-indent: 0px; text-transform: none; widows: 2; word-spacing: 0px; -webkit-text-stroke-width: 0px; background-color: rgb(251, 251, 251); text-decoration-thickness: initial; text-decoration-style: initial; text-decoration-color: initial;&quot;&gt;&lt;span style=&quot;color: rgb(0, 0, 0); font-family: Helvetica; font-size: 12px; font-style: normal; font-variant-ligatures: normal; font-variant-caps: normal; font-weight: 400; letter-spacing: normal; orphans: 2; text-align: left; text-indent: 0px; text-transform: none; widows: 2; word-spacing: 0px; -webkit-text-stroke-width: 0px; background-color: rgb(251, 251, 251); text-decoration-thickness: initial; text-decoration-style: initial; text-decoration-color: initial; float: none; display: inline !important;&quot;&gt;&amp;nbsp;&amp;nbsp;password&amp;nbsp;&lt;/span&gt;&lt;br style=&quot;border-color: var(--border-color); padding: 0px; margin: 0px; color: rgb(0, 0, 0); font-family: Helvetica; font-size: 12px; font-style: normal; font-variant-ligatures: normal; font-variant-caps: normal; font-weight: 400; letter-spacing: normal; orphans: 2; text-align: left; text-indent: 0px; text-transform: none; widows: 2; word-spacing: 0px; -webkit-text-stroke-width: 0px; background-color: rgb(251, 251, 251); text-decoration-thickness: initial; text-decoration-style: initial; text-decoration-color: initial;&quot;&gt;&lt;span style=&quot;color: rgb(0, 0, 0); font-family: Helvetica; font-size: 12px; font-style: normal; font-variant-ligatures: normal; font-variant-caps: normal; font-weight: 400; letter-spacing: normal; orphans: 2; text-align: left; text-indent: 0px; text-transform: none; widows: 2; word-spacing: 0px; -webkit-text-stroke-width: 0px; background-color: rgb(251, 251, 251); text-decoration-thickness: initial; text-decoration-style: initial; text-decoration-color: initial; float: none; display: inline !important;&quot;&gt;&amp;nbsp;&amp;nbsp;phone number&amp;nbsp;&lt;/span&gt;&lt;br style=&quot;border-color: var(--border-color); padding: 0px; margin: 0px; color: rgb(0, 0, 0); font-family: Helvetica; font-size: 12px; font-style: normal; font-variant-ligatures: normal; font-variant-caps: normal; font-weight: 400; letter-spacing: normal; orphans: 2; text-align: left; text-indent: 0px; text-transform: none; widows: 2; word-spacing: 0px; -webkit-text-stroke-width: 0px; background-color: rgb(251, 251, 251); text-decoration-thickness: initial; text-decoration-style: initial; text-decoration-color: initial;&quot;&gt;&lt;span style=&quot;color: rgb(0, 0, 0); font-family: Helvetica; font-size: 12px; font-style: normal; font-variant-ligatures: normal; font-variant-caps: normal; font-weight: 400; letter-spacing: normal; orphans: 2; text-align: left; text-indent: 0px; text-transform: none; widows: 2; word-spacing: 0px; -webkit-text-stroke-width: 0px; background-color: rgb(251, 251, 251); text-decoration-thickness: initial; text-decoration-style: initial; text-decoration-color: initial; float: none; display: inline !important;&quot;&gt;&amp;nbsp;&amp;nbsp;address&lt;/span&gt;&lt;br style=&quot;border-color: var(--border-color); padding: 0px; margin: 0px; color: rgb(0, 0, 0); font-family: Helvetica; font-size: 12px; font-style: normal; font-variant-ligatures: normal; font-variant-caps: normal; font-weight: 400; letter-spacing: normal; orphans: 2; text-align: left; text-indent: 0px; text-transform: none; widows: 2; word-spacing: 0px; -webkit-text-stroke-width: 0px; background-color: rgb(251, 251, 251); text-decoration-thickness: initial; text-decoration-style: initial; text-decoration-color: initial;&quot;&gt;&lt;span style=&quot;color: rgb(0, 0, 0); font-family: Helvetica; font-size: 12px; font-style: normal; font-variant-ligatures: normal; font-variant-caps: normal; font-weight: 400; letter-spacing: normal; orphans: 2; text-align: left; text-indent: 0px; text-transform: none; widows: 2; word-spacing: 0px; -webkit-text-stroke-width: 0px; background-color: rgb(251, 251, 251); text-decoration-thickness: initial; text-decoration-style: initial; text-decoration-color: initial; float: none; display: inline !important;&quot;&gt;&amp;nbsp;&amp;nbsp;photo&lt;br&gt;&amp;nbsp; role&lt;br&gt;&lt;/span&gt;" style="text;whiteSpace=wrap;html=1;" vertex="1" parent="-N1TcMKGQXpCPjwiUiGK-164">
          <mxGeometry y="26" width="170" height="144" as="geometry" />
        </mxCell>
        <mxCell id="-N1TcMKGQXpCPjwiUiGK-170" style="edgeStyle=orthogonalEdgeStyle;rounded=0;orthogonalLoop=1;jettySize=auto;html=1;endArrow=none;endFill=0;" edge="1" parent="1" source="-N1TcMKGQXpCPjwiUiGK-167" target="-N1TcMKGQXpCPjwiUiGK-165">
          <mxGeometry relative="1" as="geometry">
            <Array as="points">
              <mxPoint x="540" y="-1350" />
              <mxPoint x="630" y="-1350" />
            </Array>
          </mxGeometry>
        </mxCell>
        <mxCell id="-N1TcMKGQXpCPjwiUiGK-167" value="PaymentInfo" style="swimlane;fontStyle=1;align=center;verticalAlign=top;childLayout=stackLayout;horizontal=1;startSize=26;horizontalStack=0;resizeParent=1;resizeParentMax=0;resizeLast=0;collapsible=1;marginBottom=0;" vertex="1" parent="1">
          <mxGeometry x="425" y="-1300" width="160" height="140" as="geometry">
            <mxRectangle x="500" y="-190" width="70" height="30" as="alternateBounds" />
          </mxGeometry>
        </mxCell>
        <mxCell id="-N1TcMKGQXpCPjwiUiGK-168" value="*id&#xa;cardholder_name&#xa;card_number&#xa;security_code&#xa;expiration_month&#xa;expiration_year " style="text;strokeColor=none;fillColor=none;align=left;verticalAlign=top;spacingLeft=4;spacingRight=4;overflow=hidden;rotatable=0;points=[[0,0.5],[1,0.5]];portConstraint=eastwest;" vertex="1" parent="-N1TcMKGQXpCPjwiUiGK-167">
          <mxGeometry y="26" width="160" height="114" as="geometry" />
        </mxCell>
        <mxCell id="-N1TcMKGQXpCPjwiUiGK-169" style="edgeStyle=orthogonalEdgeStyle;rounded=0;orthogonalLoop=1;jettySize=auto;html=1;endArrow=none;endFill=0;" edge="1" parent="1" source="-N1TcMKGQXpCPjwiUiGK-165" target="-N1TcMKGQXpCPjwiUiGK-21">
          <mxGeometry relative="1" as="geometry">
            <Array as="points">
              <mxPoint x="940" y="-1460" />
            </Array>
          </mxGeometry>
        </mxCell>
        <mxCell id="-N1TcMKGQXpCPjwiUiGK-171" style="edgeStyle=orthogonalEdgeStyle;rounded=0;orthogonalLoop=1;jettySize=auto;html=1;exitX=1;exitY=0.5;exitDx=0;exitDy=0;endArrow=none;endFill=0;" edge="1" parent="1" source="-N1TcMKGQXpCPjwiUiGK-163" target="-N1TcMKGQXpCPjwiUiGK-165">
          <mxGeometry relative="1" as="geometry">
            <Array as="points">
              <mxPoint x="510" y="-1422" />
              <mxPoint x="510" y="-1500" />
            </Array>
          </mxGeometry>
        </mxCell>
      </root>
    </mxGraphModel>
  </diagram>
</mxfile>
